<svg xmlns="http://www.w3.org/2000/svg" xmlns:xlink="http://www.w3.org/1999/xlink" viewBox="0 0 71.234 88.053"><defs><clipPath id="clip-path" transform="translate(0 -0.001)"><rect width="71.234" height="88.054" style="fill:none"/></clipPath></defs><title>Asset 2</title><g id="Layer_2" data-name="Layer 2"><g id="Layer_1-2" data-name="Layer 1"><g style="clip-path:url(#clip-path)"><path d="M35.618,88.054a1.25,1.25,0,1,1,0-2.5,33.117,33.117,0,0,0,0-66.233,1.25,1.25,0,0,1,0-2.5,35.617,35.617,0,0,1,0,71.233" transform="translate(0 -0.001)"/><path d="M40.3,78.416a1.25,1.25,0,0,1-.128-2.493,23.128,23.128,0,0,0,.5-45.943,1.25,1.25,0,1,1,.313-2.481,25.628,25.628,0,0,1-.548,50.91,1.167,1.167,0,0,1-.132.007" transform="translate(0 -0.001)"/><path d="M35.618,71.234A35.617,35.617,0,1,1,35.618,0a1.251,1.251,0,0,1,1.25,1.25V56.032a1.25,1.25,0,0,1-2.5,0V2.524a33.117,33.117,0,0,0,1.25,66.21,1.25,1.25,0,1,1,0,2.5" transform="translate(0 -0.001)"/><path d="M35.618,88.054a1.25,1.25,0,0,1-1.25-1.25V69.984a1.25,1.25,0,0,1,2.5,0V86.8a1.251,1.251,0,0,1-1.25,1.25" transform="translate(0 -0.001)"/></g></g></g></svg>