<svg xmlns="http://www.w3.org/2000/svg" xmlns:xlink="http://www.w3.org/1999/xlink" viewBox="0 0 86.365 74.774"><defs><clipPath id="clip-path" transform="translate(-0.001)"><rect y="0.001" width="86.365" height="74.773" style="fill:none"/></clipPath></defs><title>Asset 3</title><g id="Layer_2" data-name="Layer 2"><g id="Layer_1-2" data-name="Layer 1"><g style="clip-path:url(#clip-path)"><path d="M85.116,74.774H43.183a1.249,1.249,0,0,1-1.14-.74L32.8,53.4C15.766,56.158,3.918,65.259,2.619,72.274H19.847a1.25,1.25,0,1,1,0,2.5H1.251A1.25,1.25,0,0,1,0,73.524C0,64.662,13.412,54.262,31.75,51.061L26.225,38.729a1.256,1.256,0,0,1,0-1.029L43.045.733A1.251,1.251,0,0,1,44.15,0a1.278,1.278,0,0,1,1.142.675L65.867,40.382a1.25,1.25,0,0,1-2.219,1.151L44.256,4.108,28.737,38.222l5.575,12.444a66.4,66.4,0,0,1,8.871-.592c23.256,0,43.183,12.894,43.183,23.45a1.25,1.25,0,0,1-1.25,1.25m-41.123-2.5H83.739c-.772-3.922-5.043-8.5-11.53-12.252a58.77,58.77,0,0,0-29.026-7.448,65.735,65.735,0,0,0-7.808.463Z" transform="translate(-0.001)"/></g></g></g></svg>