<svg xmlns="http://www.w3.org/2000/svg" xmlns:xlink="http://www.w3.org/1999/xlink" viewBox="0 0 91.264 69.877"><defs><clipPath id="clip-path" transform="translate(0)"><rect y="0.001" width="91.264" height="69.876" style="fill:none"/></clipPath></defs><title>Asset 4</title><g id="Layer_2" data-name="Layer 2"><g id="Layer_1-2" data-name="Layer 1"><g style="clip-path:url(#clip-path)"><path d="M45.81,69.877a1.248,1.248,0,0,1-.91-.393L.34,22.192a1.252,1.252,0,0,1-.174-1.48L11.7.629A1.246,1.246,0,0,1,12.781,0h6.06a1.25,1.25,0,0,1,0,2.5H13.5L2.8,21.152,45.806,66.8,88.439,21.189,76.516,2.5H30.73a1.25,1.25,0,0,1,0-2.5H77.2A1.247,1.247,0,0,1,78.255.58L91.068,20.662a1.251,1.251,0,0,1-.141,1.526l-44.2,47.293a1.253,1.253,0,0,1-.91.4Z" transform="translate(0)"/><path d="M1.25,22.584a1.25,1.25,0,0,1-.273-2.47l53.334-12a1.25,1.25,0,1,1,.548,2.439l-53.334,12a1.234,1.234,0,0,1-.275.031" transform="translate(0)"/><path d="M90.014,22.584a1.244,1.244,0,0,1-.4-.066L30.328,2.435a1.25,1.25,0,0,1,.8-2.368L90.415,20.15a1.25,1.25,0,0,1-.4,2.434" transform="translate(0)"/></g></g></g></svg>