<svg xmlns="http://www.w3.org/2000/svg" xmlns:xlink="http://www.w3.org/1999/xlink" viewBox="0 0 80.014 81.253"><defs><clipPath id="clip-path" transform="translate(0 -0.001)"><rect width="80.014" height="81.254" style="fill:none"/></clipPath></defs><title>Asset 5</title><g id="Layer_2" data-name="Layer 2"><g id="Layer_1-2" data-name="Layer 1"><g style="clip-path:url(#clip-path)"><path d="M61.766,81.254H1.25A1.25,1.25,0,0,1,0,80V19.369a1.25,1.25,0,0,1,1.25-1.25H61.766a1.25,1.25,0,0,1,1.25,1.25V80a1.25,1.25,0,0,1-1.25,1.25M2.5,78.754H60.516V20.619H2.5Z" transform="translate(0 -0.001)"/><path d="M78.764,63.136H18.249A1.25,1.25,0,0,1,17,61.886V41.054a1.25,1.25,0,0,1,1.25-1.25h15.42a1.25,1.25,0,0,1,0,2.5H19.5V60.636H77.514V2.5H19.5V19.369a1.25,1.25,0,0,1-2.5,0V1.251A1.25,1.25,0,0,1,18.249,0H78.764a1.25,1.25,0,0,1,1.25,1.25V61.886a1.25,1.25,0,0,1-1.25,1.25" transform="translate(0 -0.001)"/></g></g></g></svg>