<svg xmlns="http://www.w3.org/2000/svg" xmlns:xlink="http://www.w3.org/1999/xlink" viewBox="0 0 108.538 60.688"><defs><clipPath id="clip-path"><rect y="0.001" width="108.539" height="60.687" style="fill:none"/></clipPath></defs><title>Asset 6</title><g id="Layer_2" data-name="Layer 2"><g id="Layer_1-2" data-name="Layer 1"><g style="clip-path:url(#clip-path)"><path d="M57.713,60.688c-16.821,0-31.032-13.881-31.032-30.311a1.25,1.25,0,0,1,1.25-1.25H50.925a1.25,1.25,0,0,1,0,2.5H29.211c.7,14.523,13.466,26.561,28.5,26.561,18.335,0,42.947-23.079,47.824-27.836-4.781-4.928-29.3-29.006-50.6-27.509A1.25,1.25,0,1,1,54.761.349c10.462-.728,22.65,3.977,36.232,13.99A133.947,133.947,0,0,1,108.21,29.532a1.251,1.251,0,0,1-.029,1.72A163.2,163.2,0,0,1,91.159,45.91C77.99,55.716,66.738,60.688,57.713,60.688"/><path d="M50.824,60.688c-9.774,0-21.257-4.975-34.13-14.787A140.112,140.112,0,0,1,.329,31.223a1.25,1.25,0,0,1-.022-1.665,132.509,132.509,0,0,1,16.374-15.32C29.584,4.122,41.107-.64,50.915.069,66.479,1.2,82.578,12.85,82.578,30.377c0,16.43-14.541,30.311-31.754,30.311M2.953,30.354c4.539,4.694,27.935,27.834,47.871,27.834,15.858,0,29.254-12.736,29.254-27.811,0-16.072-14.92-26.763-29.345-27.813C30.854,1.125,7.429,25.47,2.953,30.354"/></g></g></g></svg>