<svg xmlns="http://www.w3.org/2000/svg" xmlns:xlink="http://www.w3.org/1999/xlink" viewBox="0 0 83.216 78.935"><defs><clipPath id="clip-path" transform="translate(-0.001)"><rect width="83.217" height="78.935" style="fill:none"/></clipPath></defs><title>Asset 7</title><g id="Layer_2" data-name="Layer 2"><g id="Layer_1-2" data-name="Layer 1"><g style="clip-path:url(#clip-path)"><path d="M30.492,78.935A30.609,30.609,0,1,1,60.981,48.326,30.585,30.585,0,0,1,30.492,78.935m0-58.717A28.109,28.109,0,1,0,58.481,48.326,28.082,28.082,0,0,0,30.492,20.218" transform="translate(-0.001)"/><path d="M58.02,60.736a1.25,1.25,0,0,1-.225-2.479,28.044,28.044,0,1,0-26.353-9.394,1.25,1.25,0,1,1-1.9,1.621A30.468,30.468,0,1,1,58.247,60.715a1.27,1.27,0,0,1-.227.021" transform="translate(-0.001)"/></g></g></g></svg>